<?xml version="1.0" encoding="iso-8859-1"?>
<!-- Generator: Adobe Illustrator 19.0.0, SVG Export Plug-In . SVG Version: 6.00 Build 0)  -->
<svg version="1.1" id="Layer_1" xmlns="http://www.w3.org/2000/svg" xmlns:xlink="http://www.w3.org/1999/xlink" x="0px" y="0px"
	 viewBox="0 0 512 512" style="enable-background:new 0 0 512 512;" xml:space="preserve">
<path style="fill:#8F5543;" d="M493.916,158.094C432.805,94.126,346.765,50.892,256.005,50.892
	c-90.352,0-176.495,42.916-237.911,107.203c-39.449,41.296-10.129,109.603,46.879,109.603h21.46c7.419,0,13.907-4.999,15.799-12.173
	c19.496-73.956,79.421-171.927,153.74-171.957c0.005,0,0.011-0.001,0.016-0.001c0.005,0,0.012,0.001,0.017,0.001
	c0.013,0,0.022,0,0.034,0c70.847,0.029,132.514,91.438,153.74,171.957c1.892,7.173,8.379,12.173,15.799,12.173h21.46
	C504.148,267.698,533.296,199.319,493.916,158.094z"/>
<path style="fill:#784738;" d="M493.916,158.094C432.805,94.126,346.765,50.892,256.005,50.892v32.675c0.013,0,0.022,0,0.034,0
	c70.847,0.029,132.514,91.438,153.74,171.957c1.892,7.173,8.379,12.173,15.799,12.173h21.46
	C504.148,267.698,533.296,199.319,493.916,158.094z"/>
<path style="fill:#C97E67;" d="M256.005,50.894c-110.654,0-194.734,158.344-194.734,262.949c0,73.418,40.51,118.7,109.364,137.247
	c11.828,3.213,24.572,5.642,38.197,7.298c29.191,3.589,64.56,3.662,94.345,0c13.626-1.656,26.369-4.084,38.198-7.298
	c68.825-18.539,109.364-63.8,109.364-137.247C450.739,209.377,366.777,50.894,256.005,50.894z"/>
<g>
	<path style="fill:#8F5543;" d="M256.005,50.894v410.212c16.141,0.001,32.348-0.895,47.172-2.717
		c13.626-1.656,26.369-4.084,38.198-7.298c68.825-18.539,109.364-63.8,109.364-137.247
		C450.739,209.377,366.777,50.894,256.005,50.894z"/>
	<path style="fill:#8F5543;" d="M272.342,378.747v-25.614c0-9.023-7.315-16.338-16.338-16.338c-9.023,0-16.338,7.315-16.338,16.338
		v25.614l-69.032,72.344c11.828,3.213,24.572,5.642,38.198,7.298l47.172-49.438l47.172,49.438
		c13.626-1.656,26.369-4.084,38.198-7.298L272.342,378.747z"/>
</g>
<g>
	<path style="fill:#784738;" d="M272.342,378.747v-25.614c0-9.023-7.315-16.338-16.338-16.338v72.156l47.172,49.438
		c13.626-1.656,26.369-4.084,38.198-7.298L272.342,378.747z"/>
	<path style="fill:#784738;" d="M244.185,364.411l-52.938-55.483c-16.742-17.544-4.285-46.719,19.996-46.719h89.525
		c24.252,0,36.76,29.151,19.996,46.719l-52.938,55.482C261.388,371.156,250.617,371.152,244.185,364.411z"/>
</g>
<path style="fill:#633B2E;" d="M300.768,262.21h-44.763v107.259c4.301,0,8.602-1.685,11.821-5.057l52.938-55.482
	C337.527,291.361,325.019,262.21,300.768,262.21z"/>
<circle style="fill:#784738;" cx="173.528" cy="213.86" r="21.613"/>
<circle style="fill:#633B2E;" cx="338.484" cy="214.002" r="21.613"/>
<g>
</g>
<g>
</g>
<g>
</g>
<g>
</g>
<g>
</g>
<g>
</g>
<g>
</g>
<g>
</g>
<g>
</g>
<g>
</g>
<g>
</g>
<g>
</g>
<g>
</g>
<g>
</g>
<g>
</g>
</svg>
