<?xml version="1.0" encoding="iso-8859-1"?>
<!-- Generator: Adobe Illustrator 18.0.0, SVG Export Plug-In . SVG Version: 6.00 Build 0)  -->
<!DOCTYPE svg PUBLIC "-//W3C//DTD SVG 1.1//EN" "http://www.w3.org/Graphics/SVG/1.1/DTD/svg11.dtd">
<svg version="1.1" id="Capa_1" xmlns="http://www.w3.org/2000/svg" xmlns:xlink="http://www.w3.org/1999/xlink" x="0px" y="0px"
	 viewBox="0 0 136.287 136.287" style="enable-background:new 0 0 136.287 136.287;" xml:space="preserve">
<g>
	<path style="fill:#FF8898;" d="M97.891,18.629c1.212,0.19,3.393,0.971,4.371,4.069c0.499,1.58-0.377,3.265-1.958,3.764
		c-1.536,0.487-3.178-0.333-3.723-1.836c-3.239,0.858-12.205,10.263-21.096,21.945c11.346-2.257,28.234-6.448,32.937-11.152
		c3.255-3.255,5.048-7.582,5.048-12.185c0-4.603-1.792-8.931-5.047-12.185C105.168,7.793,100.841,6,96.237,6
		c-4.603,0-8.931,1.793-12.186,5.048c-1.667,1.667-6.195,9.643-10.16,27.847c1.287-1.621,2.669-3.322,4.109-5.027
		C90.062,19.582,94.823,18.147,97.891,18.629z"/>
	<path style="fill:#FF8898;" d="M28.582,35.418c1.815,1.817,11.125,7.027,32.977,11.207c-8.904-11.708-17.892-21.14-21.136-21.999
		c-0.544,1.503-2.181,2.323-3.723,1.836c-1.58-0.499-2.457-2.184-1.958-3.764c0.978-3.098,3.158-3.879,4.371-4.069
		c3.072-0.482,7.83,0.954,19.89,15.239c1.4,1.659,2.746,3.313,4.003,4.894c-2.384-10.758-6.032-23.692-10.054-27.713
		C49.697,7.793,45.37,6,40.767,6c-4.603,0-8.93,1.793-12.184,5.048c-3.256,3.255-5.049,7.582-5.049,12.185
		C23.534,27.836,25.327,32.164,28.582,35.418z"/>
	<rect x="80.143" y="79.287" style="fill:#FFDAC6;" width="34" height="51"/>
	<rect x="22.143" y="79.287" style="fill:#FFDAC6;" width="34" height="51"/>
	<rect x="62.143" y="79.287" style="fill:#FF8898;" width="12" height="51"/>
	<rect x="62.143" y="56.287" style="fill:#FF8898;" width="12" height="17"/>
	<rect x="80.143" y="56.287" style="fill:#FFDAC6;" width="42" height="17"/>
	<rect x="14.143" y="56.287" style="fill:#FFDAC6;" width="42" height="17"/>
	<path style="fill:#586065;" d="M96.237,0c-1.181,0-2.341,0.115-3.487,0.287h6.975C98.579,0.115,97.418,0,96.237,0z"/>
	<path style="fill:#586065;" d="M40.767,0c-1.181,0-2.341,0.115-3.487,0.287h6.975C43.108,0.115,41.947,0,40.767,0z"/>
	<path style="fill:#586065;" d="M17.534,23.233c0,6.206,2.417,12.04,6.806,16.428c4.546,4.548,16.004,8.173,26.079,10.626H8.143v29
		h8v57h104v-57h8v-29H86.587c10.075-2.453,21.532-6.078,26.079-10.626c4.389-4.387,6.805-10.222,6.805-16.428
		c0-6.206-2.417-12.041-6.805-16.427c-3.553-3.554-8.061-5.788-12.941-6.519H92.75c-4.879,0.731-9.388,2.965-12.941,6.519
		c-4.988,4.987-8.868,18.293-11.307,28.964c-2.438-10.67-6.319-23.977-11.307-28.963c-3.553-3.554-8.062-5.788-12.941-6.519h-6.975
		C32.4,1.018,27.892,3.252,24.34,6.805C19.951,11.192,17.534,17.027,17.534,23.233z M56.143,130.287h-34v-51h34V130.287z
		 M56.143,73.287h-42v-17h42V73.287z M74.143,130.287h-12v-51h12V130.287z M114.143,130.287h-34v-51h34V130.287z M122.143,56.287v17
		h-42v-17H122.143z M84.052,11.048C87.307,7.793,91.634,6,96.237,6c4.604,0,8.931,1.793,12.186,5.048
		c3.255,3.254,5.047,7.582,5.047,12.185c0,4.603-1.792,8.931-5.048,12.185c-4.703,4.704-21.591,8.896-32.937,11.152
		c8.891-11.682,17.856-21.087,21.096-21.945c0.545,1.503,2.188,2.323,3.723,1.836c1.58-0.499,2.457-2.185,1.958-3.764
		c-0.979-3.098-3.159-3.879-4.371-4.069c-3.068-0.482-7.829,0.953-19.89,15.239c-1.439,1.705-2.822,3.406-4.109,5.027
		C77.857,20.691,82.385,12.714,84.052,11.048z M74.143,56.287v17h-12v-17H74.143z M40.767,6c4.603,0,8.931,1.793,12.186,5.048
		c4.022,4.022,7.67,16.956,10.054,27.713c-1.257-1.581-2.603-3.235-4.003-4.894c-12.06-14.285-16.818-15.721-19.89-15.239
		c-1.212,0.19-3.393,0.971-4.371,4.069c-0.499,1.58,0.377,3.265,1.958,3.764c1.542,0.486,3.179-0.333,3.723-1.836
		c3.244,0.859,12.232,10.292,21.136,21.999c-21.852-4.18-31.162-9.39-32.977-11.207c-3.255-3.254-5.048-7.582-5.048-12.185
		c0-4.603,1.793-8.93,5.049-12.185C31.837,7.793,36.164,6,40.767,6z"/>
</g>
<g>
</g>
<g>
</g>
<g>
</g>
<g>
</g>
<g>
</g>
<g>
</g>
<g>
</g>
<g>
</g>
<g>
</g>
<g>
</g>
<g>
</g>
<g>
</g>
<g>
</g>
<g>
</g>
<g>
</g>
</svg>
