<?xml version="1.0" encoding="iso-8859-1"?>
<!-- Generator: Adobe Illustrator 19.0.0, SVG Export Plug-In . SVG Version: 6.00 Build 0)  -->
<svg version="1.1" id="Layer_1" xmlns="http://www.w3.org/2000/svg" xmlns:xlink="http://www.w3.org/1999/xlink" x="0px" y="0px"
	 viewBox="0 0 512 512" style="enable-background:new 0 0 512 512;" xml:space="preserve">
<path style="fill:#FF9811;" d="M348.105,144.54L380.878,0H131.122l32.773,144.539C83.188,180.004,26.821,260.632,26.821,354.44
	c0,61.039,23.88,116.486,62.786,157.56h332.781c38.907-41.074,62.79-96.521,62.79-157.56
	C485.179,260.633,428.81,180.005,348.105,144.54z"/>
<path style="fill:#FF5023;" d="M348.105,144.54L380.878,0H256v512h166.389c38.907-41.074,62.79-96.521,62.79-157.56
	C485.179,260.633,428.81,180.005,348.105,144.54z"/>
<rect x="152.351" y="112.39" style="fill:#FFE98F;" width="207.298" height="37.463"/>
<rect x="256" y="112.39" style="fill:#FFDA44;" width="103.649" height="37.463"/>
<g>
</g>
<g>
</g>
<g>
</g>
<g>
</g>
<g>
</g>
<g>
</g>
<g>
</g>
<g>
</g>
<g>
</g>
<g>
</g>
<g>
</g>
<g>
</g>
<g>
</g>
<g>
</g>
<g>
</g>
</svg>
